<?xml version="1.0" encoding="iso-8859-1"?>
<!-- Generator: Adobe Illustrator 19.0.0, SVG Export Plug-In . SVG Version: 6.00 Build 0)  -->
<svg version="1.1" id="Layer_1" xmlns="http://www.w3.org/2000/svg" xmlns:xlink="http://www.w3.org/1999/xlink" x="0px" y="0px"
	 viewBox="0 0 512 512" style="enable-background:new 0 0 512 512;" xml:space="preserve">
<g>
	<g>
		<circle cx="313.191" cy="40.851" r="8.17"/>
	</g>
</g>
<g>
	<g>
		<path d="M400.34,0H111.66C89.134,0,70.809,18.325,70.809,40.851v430.298c0,22.526,18.325,40.851,40.851,40.851H400.34
			c22.526,0,40.851-18.325,40.851-40.851V40.851C441.191,18.325,422.866,0,400.34,0z M424.851,471.149
			c0,13.516-10.996,24.511-24.511,24.511H111.66c-13.516,0-24.511-10.995-24.511-24.511v-24.511h337.702V471.149z M424.851,65.362
			H144.34c-4.512,0-8.17,3.658-8.17,8.17s3.658,8.17,8.17,8.17h280.511v348.596H87.149V81.702h24.511c4.512,0,8.17-3.658,8.17-8.17
			s-3.658-8.17-8.17-8.17H87.149V40.851c0-13.516,10.995-24.511,24.511-24.511H400.34c13.515,0,24.511,10.995,24.511,24.511V65.362z
			"/>
	</g>
</g>
<g>
	<g>
		<path d="M280.511,462.979h-49.021c-4.512,0-8.17,3.658-8.17,8.17s3.658,8.17,8.17,8.17h49.021c4.513,0,8.17-3.658,8.17-8.17
			S285.024,462.979,280.511,462.979z"/>
	</g>
</g>
<g>
	<g>
		<path d="M280.511,32.681h-49.021c-4.512,0-8.17,3.658-8.17,8.17s3.658,8.17,8.17,8.17h49.021c4.513,0,8.17-3.658,8.17-8.17
			S285.024,32.681,280.511,32.681z"/>
	</g>
</g>
<g>
	<g>
		<path d="M384,258.723h-24.511v-16.34h2.723c4.513,0,8.17-3.658,8.17-8.17s-3.657-8.17-8.17-8.17h-2.723v-13.617
			c0-22.526-18.325-40.851-40.851-40.851h-14.44c-3.795-18.624-20.3-32.681-40.029-32.681h-16.34
			c-19.728,0-36.233,14.057-40.029,32.681h-14.44c-22.526,0-40.851,18.325-40.851,40.851v13.617h-2.723
			c-4.512,0-8.17,3.658-8.17,8.17s3.658,8.17,8.17,8.17h193.362v89.872c0,13.516-10.996,24.511-24.511,24.511H193.362
			c-13.516,0-24.511-10.995-24.511-24.511v-65.362c0-4.512-3.658-8.17-8.17-8.17H128c-4.512,0-8.17,3.658-8.17,8.17
			s3.658,8.17,8.17,8.17h24.511v57.191c0,22.526,18.325,40.851,40.851,40.851h125.277c22.526,0,40.851-18.325,40.851-40.851v-57.191
			H384c4.513,0,8.17-3.658,8.17-8.17S388.513,258.723,384,258.723z M247.83,155.234h16.34c10.651,0,19.733,6.831,23.105,16.34
			h-62.551C228.097,162.065,237.178,155.234,247.83,155.234z M343.149,226.043H168.851v-13.617
			c0-13.516,10.995-24.511,24.511-24.511h125.277c13.515,0,24.511,10.995,24.511,24.511V226.043z"/>
	</g>
</g>
<g>
</g>
<g>
</g>
<g>
</g>
<g>
</g>
<g>
</g>
<g>
</g>
<g>
</g>
<g>
</g>
<g>
</g>
<g>
</g>
<g>
</g>
<g>
</g>
<g>
</g>
<g>
</g>
<g>
</g>
</svg>
